<?xml version="1.0" encoding="utf-8"?>
<!-- Generator: Adobe Illustrator 16.0.0, SVG Export Plug-In . SVG Version: 6.00 Build 0)  -->
<!DOCTYPE svg PUBLIC "-//W3C//DTD SVG 1.1//EN" "http://www.w3.org/Graphics/SVG/1.1/DTD/svg11.dtd">
<svg version="1.1" id="Layer_1" xmlns="http://www.w3.org/2000/svg" xmlns:xlink="http://www.w3.org/1999/xlink" x="0px" y="0px"
	 width="200px" height="100px" viewBox="0 0 200 100" enable-background="new 0 0 200 100" xml:space="preserve">
<g>
	<g>
		<g>
			<path d="M197,98H3c-1.654,0-3-1.346-3-3V4c0-1.654,1.346-3,3-3h194c1.654,0,3,1.346,3,3v91C200,96.654,198.654,98,197,98z M3,3
				C2.449,3,2,3.449,2,4v91c0,0.552,0.449,1,1,1h194c0.552,0,1-0.448,1-1V4c0-0.551-0.448-1-1-1H3z"/>
		</g>
	</g>
	<g>
		<rect x="67" y="2" width="2" height="95"/>
	</g>
</g>
<g>
	<path d="M42.957,66.621c-0.034,0-0.068-0.003-0.102-0.008c-0.209-0.032-0.39-0.163-0.487-0.352l-7.107-13.805l-4.959,4.955
		l0.4,4.167c0.019,0.197-0.051,0.392-0.191,0.531l-2.326,2.326c-0.152,0.153-0.372,0.224-0.581,0.185
		c-0.212-0.036-0.393-0.174-0.486-0.368l-2.356-4.951l-4.947-2.356c-0.194-0.092-0.331-0.273-0.368-0.485
		c-0.037-0.211,0.032-0.428,0.184-0.58l2.325-2.33c0.14-0.141,0.333-0.208,0.533-0.191l4.164,0.404l4.958-4.955L17.805,41.69
		c-0.188-0.097-0.318-0.277-0.351-0.486s0.037-0.421,0.186-0.57l2.803-2.801c0.165-0.164,0.402-0.229,0.626-0.175l17.397,4.281
		l7.801-7.801c0.973-0.976,2.677-0.977,3.656,0c0.489,0.491,0.758,1.142,0.757,1.833c0,0.692-0.27,1.342-0.759,1.83l-7.799,7.798
		l4.278,17.402c0.055,0.226-0.011,0.463-0.175,0.627l-2.801,2.8C43.3,66.553,43.131,66.621,42.957,66.621z M35.434,50.686
		c0.034,0,0.068,0.003,0.103,0.008c0.208,0.033,0.39,0.163,0.486,0.352L43.13,64.85l1.896-1.895l-4.278-17.403
		c-0.055-0.225,0.011-0.463,0.175-0.626l8.064-8.063c0.239-0.238,0.37-0.555,0.37-0.893c0-0.339-0.131-0.657-0.37-0.897
		c-0.476-0.475-1.308-0.476-1.782,0l-8.066,8.066c-0.163,0.164-0.403,0.229-0.626,0.175l-17.397-4.281l-1.897,1.896l13.806,7.117
		c0.188,0.097,0.318,0.277,0.351,0.486s-0.037,0.421-0.186,0.57l-5.82,5.818c-0.14,0.139-0.33,0.21-0.532,0.19l-4.164-0.404
		l-1.442,1.445l4.314,2.055c0.137,0.065,0.248,0.176,0.313,0.313l2.054,4.316l1.442-1.441l-0.4-4.168
		c-0.019-0.197,0.051-0.393,0.191-0.532l5.821-5.816C35.091,50.754,35.26,50.686,35.434,50.686z"/>
</g>
<g enable-background="new    ">
	<path d="M83.938,33.794v4.687h6.557v1.65h-6.557v6.535h-1.76V32.144h10.166v1.65H83.938z"/>
	<path d="M105.674,45.016v1.65H95.597V32.144h1.76v12.872H105.674z"/>
	<path d="M111.02,40.989v5.677h-1.76v-5.677l-5.193-8.846h2.091l3.982,7.041l3.982-7.041h2.091L111.02,40.989z"/>
	<path d="M135.462,45.016v1.65h-10.077V32.144h1.76v12.872H135.462z"/>
	<path d="M140.301,46.666h-1.76V32.144h1.76V46.666z"/>
	<path d="M156.867,39.339v7.327h-1.319l-0.066-1.958c-0.836,1.364-2.354,2.178-4.577,2.178c-4.136,0-6.732-2.882-6.732-7.48
		s2.707-7.481,6.777-7.481c2.883,0,4.687,1.078,5.809,3.322l-1.606,0.881c-0.638-1.673-2.179-2.553-4.202-2.553
		c-2.949,0-4.929,2.178-4.929,5.831c0,3.652,1.716,5.83,4.95,5.83c2.42,0,4.291-1.231,4.291-3.74v-0.506h-4.621v-1.65H156.867z"/>
	<path d="M172.378,32.144v14.522h-1.761v-6.535h-7.877v6.535h-1.76V32.144h1.76v6.337h7.877v-6.337H172.378z"/>
	<path d="M187.337,33.794h-5.061v12.872h-1.76V33.794h-5.062v-1.65h11.882V33.794z"/>
</g>
<g>
	<path d="M99.953,68.024l0.91-0.631c0.336,0.854,1.205,1.232,2.213,1.232c1.149,0,1.695-0.462,1.695-1.036
		c0-0.519-0.434-0.826-1.835-1.079c-1.989-0.363-2.718-0.91-2.718-2.087c0-1.135,1.051-2.101,2.76-2.101
		c1.499,0,2.381,0.532,2.773,1.681l-0.952,0.561c-0.308-0.925-0.938-1.261-1.821-1.261c-0.938,0-1.639,0.504-1.639,1.022
		c0,0.603,0.463,0.91,1.891,1.148c1.961,0.322,2.662,0.91,2.662,2.06c0,1.218-1.135,2.072-2.928,2.072
		C101.676,69.606,100.485,69.103,99.953,68.024z"/>
	<path d="M107.682,60.277c0-0.504,0.336-0.84,0.84-0.84s0.841,0.336,0.841,0.84c0,0.505-0.337,0.841-0.841,0.841
		S107.682,60.782,107.682,60.277z M109.082,69.467h-1.121v-7.004h1.121V69.467z"/>
	<path d="M117.82,64.984v4.482h-1.12v-4.09c0-1.556-0.757-2.073-1.723-2.073c-1.022,0-2.171,0.645-2.171,2.438v3.726h-1.121v-7.004
		h0.98l0.07,1.093c0.49-0.883,1.387-1.232,2.354-1.232C116.588,62.323,117.82,63.178,117.82,64.984z"/>
	<path d="M126.206,64.186l-1.064,0.505c-0.294-0.896-0.896-1.387-1.862-1.387c-1.401,0-2.242,0.994-2.242,2.661
		s0.841,2.661,2.242,2.661c1.092,0,1.75-0.518,1.961-1.442l1.036,0.364c-0.477,1.289-1.485,2.059-2.97,2.059
		c-2.115,0-3.39-1.372-3.39-3.642s1.274-3.642,3.39-3.642C124.75,62.323,125.688,63.037,126.206,64.186z"/>
	<path d="M134.2,66.385h-5.28c0.14,1.415,0.994,2.241,2.283,2.241c1.021,0,1.723-0.364,1.975-1.036l0.938,0.49
		c-0.532,0.952-1.401,1.526-2.913,1.526c-2.115,0-3.391-1.372-3.391-3.642s1.191-3.642,3.307-3.642c2.031,0,3.137,1.471,3.137,3.277
		C134.256,65.923,134.229,66.189,134.2,66.385z M128.934,65.391h4.244c-0.154-1.289-0.869-2.087-2.059-2.087
		C129.872,63.304,129.102,64.074,128.934,65.391z"/>
	<path d="M140.889,68.557c3.697-2.718,4.847-3.937,4.847-5.575c0-1.093-0.757-1.85-1.961-1.85c-1.274,0-2.073,0.896-2.199,2.284
		l-0.981-0.589c0.238-1.61,1.346-2.745,3.223-2.745c1.891,0,3.096,1.19,3.096,2.899c0,1.736-1.121,3.264-4.427,5.463v0.014
		c0.308-0.014,1.106-0.042,1.387-0.042h3.235v1.051h-6.219V68.557z"/>
	<path d="M148.925,64.845c0-3.096,1.204-4.763,3.446-4.763c2.24,0,3.445,1.667,3.445,4.763s-1.205,4.762-3.445,4.762
		C150.129,69.606,148.925,67.94,148.925,64.845z M154.654,64.845c0-2.438-0.799-3.755-2.283-3.755c-1.485,0-2.283,1.317-2.283,3.755
		c0,2.437,0.798,3.754,2.283,3.754C153.855,68.599,154.654,67.281,154.654,64.845z"/>
	<path d="M161.022,60.222v9.245h-1.12v-6.779c0-0.309,0.014-0.687,0.027-1.079c-0.645,0.616-1.526,1.093-2.395,1.303l-0.295-1.022
		c0.658-0.084,2.283-0.952,2.802-1.667H161.022z"/>
	<path d="M169.816,60.222v1.051c-2.34,2.451-3.307,5.07-3.307,8.194h-1.148c0-2.983,1.079-5.855,3.236-8.194h-5.589v-1.051H169.816z
		"/>
</g>
<path d="M187.337,66.579h-11.882v-1.162h11.882V66.579z"/>
<path d="M94.059,66.579H82.177v-1.162h11.882V66.579z"/>
</svg>
